<?xml version="1.0" encoding="iso-8859-1"?>
<!-- Generator: Adobe Illustrator 19.0.0, SVG Export Plug-In . SVG Version: 6.00 Build 0)  -->
<svg version="1.1" id="Capa_1" xmlns="http://www.w3.org/2000/svg" xmlns:xlink="http://www.w3.org/1999/xlink" x="0px" y="0px"
	 viewBox="0 0 513.179 513.179" style="enable-background:new 0 0 513.179 513.179;" xml:space="preserve">
<path style="fill:#40596B;" d="M508.323,366.456C470.99,422.99,422.99,472.056,365.39,509.39c-9.6,6.4-24.533,4.267-33.067-3.2
	C224.59,396.323,116.856,288.59,8.056,179.79c-8.533-8.533-9.6-23.467-3.2-33.067C42.19,90.19,90.19,41.123,147.79,3.79
	c9.6-6.4,24.533-4.267,33.067,3.2c107.733,109.867,215.467,217.6,324.267,326.4C513.656,341.923,514.723,355.79,508.323,366.456z"/>
<g>
	<path style="fill:#CDD6E0;" d="M75.256,157.39l-21.333,21.333c-4.267,4.267-9.6,4.267-13.867,0l-1.067-1.067
		c-4.267-4.267-4.267-9.6,0-13.867l21.333-21.333c4.267-3.2,10.667-3.2,14.933,0v1.067C79.523,147.79,79.523,153.123,75.256,157.39z
		"/>
	<path style="fill:#CDD6E0;" d="M178.723,53.923L157.39,75.256c-4.267,4.267-9.6,4.267-13.867,0h-1.067
		c-3.2-4.267-3.2-10.667,0-13.867l21.333-21.333c4.267-4.267,9.6-4.267,13.867,0l1.067,1.067
		C181.923,44.323,181.923,50.723,178.723,53.923z"/>
	<path style="fill:#CDD6E0;" d="M271.523,353.656L250.19,374.99c-4.267,4.267-9.6,4.267-13.867,0v-1.067
		c-4.267-4.267-4.267-9.6,0-13.867l21.333-21.333c4.267-4.267,9.6-4.267,13.867,0l1.067,1.067
		C275.79,342.99,275.79,349.39,271.523,353.656z"/>
	<path style="fill:#CDD6E0;" d="M322.723,301.39l-21.333,21.333c-4.267,4.267-9.6,4.267-13.867,0l-1.067-1.067
		c-4.267-4.267-4.267-9.6,0-13.867l21.333-21.333c4.267-4.267,9.6-4.267,13.867,0l1.067,1.067
		C326.99,291.79,326.99,298.19,322.723,301.39z"/>
	<path style="fill:#CDD6E0;" d="M374.99,250.19l-21.333,21.333c-4.267,4.267-9.6,4.267-13.867,0l-1.067-1.067
		c-4.267-4.267-4.267-9.6,0-13.867l21.333-21.333c4.267-4.267,9.6-4.267,13.867,0l1.067,1.067
		C378.19,240.59,378.19,246.99,374.99,250.19z"/>
	<path style="fill:#CDD6E0;" d="M307.79,388.856l-21.333,21.333c-4.267,4.267-9.6,4.267-13.867,0l-1.067-1.067
		c-4.267-4.267-4.267-9.6,0-13.867l21.333-21.333c4.267-4.267,9.6-4.267,13.867,0l1.067,1.067
		C310.99,379.256,310.99,385.656,307.79,388.856z"/>
	<path style="fill:#CDD6E0;" d="M358.99,337.656l-21.333,21.333c-4.267,4.267-9.6,4.267-13.867,0l-1.067-1.067
		c-4.267-4.267-4.267-9.6,0-13.867l21.333-21.333c4.267-4.267,9.6-4.267,13.867,0l1.067,1.067
		C363.256,328.056,363.256,334.456,358.99,337.656z"/>
	<path style="fill:#CDD6E0;" d="M410.19,286.456l-21.333,21.333c-4.267,4.267-9.6,4.267-13.867,0l-1.067-1.067
		c-4.267-4.267-4.267-9.6,0-13.867l21.333-21.333c4.267-4.267,9.6-4.267,13.867,0l1.067,1.067
		C414.456,276.856,414.456,282.19,410.19,286.456z"/>
	<path style="fill:#CDD6E0;" d="M344.056,425.123l-21.333,21.333c-4.267,4.267-9.6,4.267-13.867,0l-1.067-1.067
		c-4.267-4.267-4.267-9.6,0-13.867l21.333-21.333c4.267-4.267,9.6-4.267,13.867,0l1.067,1.067
		C347.256,415.523,347.256,421.923,344.056,425.123z"/>
	<path style="fill:#CDD6E0;" d="M395.256,373.923l-21.333,21.333c-4.267,4.267-9.6,4.267-13.867,0l-1.067-1.067
		c-4.267-4.267-4.267-9.6,0-13.867l21.333-21.333c4.267-4.267,9.6-4.267,13.867,0l1.067,1.067
		C398.456,364.323,398.456,369.656,395.256,373.923z"/>
	<path style="fill:#CDD6E0;" d="M446.456,322.723l-21.333,21.333c-4.267,4.267-9.6,4.267-13.867,0l-1.067-1.067
		c-4.267-4.267-4.267-9.6,0-13.867l21.333-21.333c4.267-4.267,9.6-4.267,13.867,0l1.067,1.067
		C450.723,312.056,450.723,318.456,446.456,322.723z"/>
	<path style="fill:#CDD6E0;" d="M430.456,410.19l-21.333,21.333c-4.267,4.267-9.6,4.267-13.867,0v-1.067
		c-4.267-4.267-4.267-9.6,0-13.867l21.333-21.333c4.267-4.267,9.6-4.267,13.867,0l1.067,1.067
		C434.723,399.523,434.723,405.923,430.456,410.19z"/>
</g>
<g>
	<path style="fill:#FFD15C;" d="M236.323,177.656c6.4,6.4,10.667,13.867,11.733,22.4h36.267c-1.067-17.067-9.6-35.2-22.4-48
		c-13.867-13.867-30.933-21.333-48-22.4v36.267C222.456,168.056,229.923,171.256,236.323,177.656z"/>
	<path style="fill:#FFD15C;" d="M177.656,236.323c-6.4-6.4-10.667-13.867-11.733-22.4h-36.267c1.067,17.067,9.6,35.2,22.4,48
		c13.867,13.867,30.933,21.333,48,22.4v-36.267C191.523,246.99,184.056,242.723,177.656,236.323z"/>
</g>
<g>
	<path style="fill:#FF7058;" d="M248.056,213.923c-1.067,8.533-5.333,16-11.733,22.4c-6.4,6.4-13.867,10.667-22.4,11.733v36.267
		c17.067-1.067,35.2-9.6,48-22.4c13.867-13.867,21.333-30.933,22.4-48H248.056z"/>
	<path style="fill:#FF7058;" d="M165.923,200.056c1.067-8.533,5.333-16,11.733-22.4c6.4-6.4,13.867-10.667,22.4-11.733v-36.267
		c-17.067,1.067-35.2,9.6-48,22.4c-12.8,12.8-21.333,30.933-22.4,48H165.923z"/>
</g>
<g>
</g>
<g>
</g>
<g>
</g>
<g>
</g>
<g>
</g>
<g>
</g>
<g>
</g>
<g>
</g>
<g>
</g>
<g>
</g>
<g>
</g>
<g>
</g>
<g>
</g>
<g>
</g>
<g>
</g>
</svg>
